<?xml version="1.0" encoding="UTF-8" standalone="no"?>
<!-- Created with Inkscape (http://www.inkscape.org/) -->

<svg
   version="1.1"
   id="svg1"
   width="351"
   height="351"
   viewBox="0 0 351 351"
   sodipodi:docname="иконка2.svg"
   inkscape:version="1.4 (86a8ad7, 2024-10-11)"
   inkscape:export-filename="иконка22.png"
   inkscape:export-xdpi="96"
   inkscape:export-ydpi="96"
   xmlns:inkscape="http://www.inkscape.org/namespaces/inkscape"
   xmlns:sodipodi="http://sodipodi.sourceforge.net/DTD/sodipodi-0.dtd"
   xmlns="http://www.w3.org/2000/svg"
   xmlns:svg="http://www.w3.org/2000/svg">
  <defs
     id="defs1" />
  <sodipodi:namedview
     id="namedview1"
     pagecolor="#ffffff"
     bordercolor="#000000"
     borderopacity="0.25"
     inkscape:showpageshadow="2"
     inkscape:pageopacity="0.0"
     inkscape:pagecheckerboard="0"
     inkscape:deskcolor="#d1d1d1"
     inkscape:zoom="4"
     inkscape:cx="146.75"
     inkscape:cy="181.375"
     inkscape:window-width="2560"
     inkscape:window-height="1377"
     inkscape:window-x="-8"
     inkscape:window-y="-8"
     inkscape:window-maximized="1"
     inkscape:current-layer="g1" />
  <g
     inkscape:groupmode="layer"
     inkscape:label="Image"
     id="g1">
    <path
       style="fill:#808080;fill-opacity:1"
       d="m 96.401332,335.56855 c -1.124024,-0.7873 -2.587051,-3.24506 -3.251172,-5.4617 -2.01326,-6.71966 0.582983,-13.53455 6.575596,-17.26031 C 103.22279,310.67235 104.82205,310.46328 121.5,310 l 18,-0.5 0.28349,-2.5 c 0.15592,-1.375 1.4668,-7.56411 2.91308,-13.75359 1.44627,-6.18947 2.36685,-11.51632 2.04573,-11.83744 -1.92019,-1.92019 -12.94531,-2.40006 -52.827031,-2.29931 -50.026572,0.12638 -47.341607,0.49097 -54.63232,-7.41852 -8.431856,-9.14749 -7.74559,-1.66918 -8.084695,-88.0998 l -0.301746,-76.90867 2.17878,-5.36817 C 33.333649,95.750258 40.379374,88.428012 44.416668,87.449517 45.562501,87.171808 66.075,87.069559 90,87.222296 L 133.5,87.5 l 0.29135,8.91543 c 0.21103,6.45794 -0.0646,9.14125 -1,9.73469 -0.71024,0.45059 -18.65041,0.82615 -39.867036,0.83457 L 54.348628,107 52.174314,109.31445 50,111.6289 v 64.73101 l 0,64.731 2.454545,2.45454 2.454546,2.45455 119.358359,0 h 119.35837 l 2.68709,-2.80472 2.68709,-2.80472 0,-64.50415 c 0,-55.16794 -0.2125,-64.78511 -1.4682,-66.44528 -1.07185,-1.41712 -1.47678,-4.81387 -1.5,-12.582722 -0.0314,-10.518714 -0.003,-10.648813 2.45978,-11.266938 6.67838,-1.676169 17.93721,7.471463 20.60896,16.74448 0.51253,1.77886 0.9264,37.18561 0.94538,80.87581 0.0326,75.09636 -0.0318,77.83925 -1.9145,81.5 -2.21688,4.31056 -5.74359,7.81296 -11.87088,11.78902 l -4.23945,2.75104 -46.26055,-0.17641 c -39.05866,-0.14895 -46.56799,0.0496 -48.23544,1.27512 -1.95364,1.43592 -1.95475,1.53597 -0.1027,9.3005 1.57525,6.6041 3.11644,12.32971 5.14098,19.09897 0.27795,0.92933 4.3038,1.25 15.69335,1.25 13.90056,0 15.73201,0.2084 19.77331,2.25 6.25484,3.15985 8.96996,7.61221 8.96996,14.70932 0,4.31738 -0.48464,6.18376 -2.03896,7.85212 L 252.92209,337 h -77.23854 c -65.39407,0 -77.551934,-0.21951 -79.282218,-1.43145 z M 91,200.73991 c -2.034697,-1.04795 -2.556008,-2.14961 -2.800924,-5.91908 -0.291504,-4.48649 -0.05671,-4.9174 7.5,-13.76477 11.428004,-13.37987 17.165484,-20.46136 17.237384,-21.27528 0.035,-0.39557 -5.44896,-0.84557 -12.18646,-1 L 88.5,158.5 88.200016,152.16269 c -0.180417,-3.8114 0.16732,-6.90038 0.872445,-7.75 C 90.021297,143.26941 94.707924,143 113.6472,143 h 23.4023 l 0.97624,2.56771 c 1.36376,3.58694 0.14446,9.9024 -2.72943,14.1373 -1.33521,1.96755 -6.8981,8.65889 -12.36198,14.86964 C 117.47045,180.78541 113,186.34687 113,186.93347 113,187.62924 117.14676,188 124.92857,188 c 13.57086,0 15.08166,0.6845 15.05612,6.82143 -0.0283,6.79779 0.486,6.65023 -24.19682,6.94232 C 99.13481,201.96083 92.867951,201.70198 91,200.73991 Z m 53.5567,-70.96242 c -3.8835,-5.54448 -1.36281,-9.96131 20.71258,-36.293174 5.9231,-7.065169 10.41397,-13.201065 9.97971,-13.635324 -0.43426,-0.434259 -7.08043,-0.915434 -14.76927,-1.069277 L 146.5,78.5 146.20226,71.659988 c -0.18204,-4.181873 0.15701,-7.387955 0.87244,-8.25 C 148.02257,62.267882 152.83408,62 172.39994,62 201.19727,62 201,61.939183 201,70.817463 c 0,5.599299 -0.13315,5.866814 -7.25,14.566421 -3.9875,4.874302 -8.26905,10.38196 -9.51456,12.239241 C 182.98993,99.480406 181.60223,101 181.15166,101 c -0.45057,0 -2.47122,2.39862 -4.49032,5.33027 -2.01911,2.93165 -4.79391,6.38509 -6.16622,7.67432 -1.37232,1.28922 -2.49512,2.7156 -2.49512,3.16972 0,0.45413 7.6645,0.82569 17.03222,0.82569 19.43262,0 18.75586,-0.33378 18.12127,8.9375 L 202.80697,132 h -28.34678 c -28.15914,0 -28.35709,-0.0147 -29.90349,-2.22251 z M 219.2,88.8 c -0.71503,-0.715035 -1.2,-4.162093 -1.2,-8.529418 0,-6.961661 0.18847,-7.567853 3.75627,-12.081457 5.3522,-6.771044 11.25215,-13.759022 23.12932,-27.394693 6.25705,-7.183447 10.02298,-12.285861 9.47342,-12.835419 -0.50169,-0.501692 -9.2252,-1.035208 -19.38559,-1.18559 L 216.5,26.5 216.19659,20.030853 c -0.16687,-3.55803 -0.0458,-7.49553 0.26906,-8.75 L 217.0381,9 H 251.01905 285 v 7.767176 7.767176 l -4.5,5.144175 c -2.475,2.829297 -4.5,5.507688 -4.5,5.951979 0,0.444292 -1.78698,2.621684 -3.97107,4.838649 C 261.50275,51.153786 247,68.394056 247,70.222506 247,70.650128 254.67958,71 264.06574,71 c 9.8515,0 17.88342,0.437606 19,1.035184 1.63985,0.877621 1.93426,2.140945 1.93426,8.3 0,4.317079 -0.48691,7.751722 -1.2,8.464816 -1.71591,1.715906 -62.88409,1.715906 -64.6,0 z"
       id="path1" />
  </g>
</svg>
