<?xml version="1.0" encoding="UTF-8" standalone="no"?>
<!-- Created with Inkscape (http://www.inkscape.org/) -->

<svg
   version="1.1"
   id="svg1"
   width="351"
   height="351"
   viewBox="0 0 351 351"
   sodipodi:docname="иконка1.svg"
   inkscape:version="1.4 (86a8ad7, 2024-10-11)"
   inkscape:export-filename="иконка11.png"
   inkscape:export-xdpi="96"
   inkscape:export-ydpi="96"
   xmlns:inkscape="http://www.inkscape.org/namespaces/inkscape"
   xmlns:sodipodi="http://sodipodi.sourceforge.net/DTD/sodipodi-0.dtd"
   xmlns="http://www.w3.org/2000/svg"
   xmlns:svg="http://www.w3.org/2000/svg">
  <defs
     id="defs1" />
  <sodipodi:namedview
     id="namedview1"
     pagecolor="#ffffff"
     bordercolor="#000000"
     borderopacity="0.25"
     inkscape:showpageshadow="2"
     inkscape:pageopacity="0.0"
     inkscape:pagecheckerboard="0"
     inkscape:deskcolor="#d1d1d1"
     inkscape:zoom="3.3475783"
     inkscape:cx="155.48553"
     inkscape:cy="177.88979"
     inkscape:window-width="2560"
     inkscape:window-height="1377"
     inkscape:window-x="-8"
     inkscape:window-y="-8"
     inkscape:window-maximized="1"
     inkscape:current-layer="g1" />
  <g
     inkscape:groupmode="layer"
     inkscape:label="Image"
     id="g1">
    <path
       style="fill:#269a49"
       d="m 98.025436,335.02544 c -2.579099,-2.5791 -3.418661,-6.16488 -2.617091,-11.17763 C 97.290634,312.07663 101.66039,310 124.54772,310 c 18.74309,0 17.72026,0.51354 18.92112,-9.5 0.39574,-3.3 1.38703,-8.62208 2.20285,-11.82684 0.81583,-3.20475 1.24382,-6.45096 0.95109,-7.21379 -0.44164,-1.15091 -8.8368,-1.43567 -49.327502,-1.67317 L 48.5,279.5 43.720951,276.63795 c -2.628476,-1.57412 -6.134194,-4.83168 -7.790483,-7.23901 -6.158425,-8.95096 -5.932522,-5.57593 -5.908506,-88.27467 C 30.043429,107.20614 30.08988,105.39848 32.080913,101 34.592392,95.451783 38.263589,91.484007 43.5,88.658417 47.428781,86.53843 48.301214,86.5 92.5,86.5 h 45 v 10 10 l -41.339126,0.5 -41.339126,0.5 -1.910874,2.36078 C 51.075318,112.12852 51,114.68261 51,174.66044 c 0,66.6405 0.0017,66.66454 4.83167,69.24947 1.116376,0.59747 46.29638,1.24439 117.79503,1.68668 111.21578,0.68798 116.18234,0.64175 120.80694,-1.1244 7.90141,-3.01757 7.56688,0.0652 7.56262,-69.69007 -0.004,-59.83514 -0.0517,-61.3608 -2.03522,-64.61421 -1.73873,-2.8519 -1.99038,-4.72533 -1.74626,-12.999997 L 298.5,87.5 l 4.38782,-0.314232 c 5.69141,-0.407588 9.28035,1.151089 13.56143,5.889737 6.72399,7.442655 6.61873,5.943687 6.31939,89.994525 L 322.5,258.5 l -3,6 c -3.48212,6.96425 -9.95567,12.40469 -17.00309,14.28958 C 299.27359,279.65169 285.04317,280 253.04467,280 c -24.70965,0 -45.15336,0.36685 -45.43048,0.81523 -0.27711,0.44838 0.14247,3.48588 0.93241,6.75 0.78994,3.26412 2.22761,9.53477 3.19483,13.93477 l 1.75857,8 17.5,0.5 c 12.31042,0.35173 18.32279,0.9216 20.27456,1.92171 4.00958,2.05453 6.6411,6.96828 7.33659,13.69932 0.55374,5.3593 0.38101,6.12205 -1.95411,8.62897 L 254.0955,337 h -77.04775 c -75.38358,0 -77.090399,-0.0426 -79.022314,-1.97456 z M 90.220038,200.25 c -1.100841,-0.9625 -2.251535,-3.14796 -2.557098,-4.85657 -0.628593,-3.5149 0.235513,-4.93228 10.080663,-16.53513 C 108.41337,166.28361 112.38607,161.34179 112.78351,160.14946 113.0572,159.32839 109.91451,159 101.78333,159 94.262963,159 89.992777,158.59278 89.2,157.8 87.728545,156.32854 87.616536,147.58503 89.035184,144.93426 90.014365,143.10464 91.36493,143 114,143 c 22.63507,0 23.98563,0.10464 24.96482,1.93426 2.13727,3.99353 1.22129,9.00344 -2.44924,13.39594 -1.91643,2.29339 -7.99598,9.49291 -13.51011,15.99893 -5.51413,6.50602 -9.76959,12.24352 -9.45657,12.75 0.31303,0.50648 6.07758,0.92087 12.81012,0.92087 8.18743,0 12.63836,0.39738 13.44098,1.2 1.75122,1.75122 1.49961,9.35753 -0.37143,11.22857 -1.33675,1.33675 -4.9791,1.57143 -24.38921,1.57143 -20.302077,0 -23.038465,-0.19294 -24.819322,-1.75 z m 55.796002,-70.23396 c -2.25187,-2.25187 -2.56948,-6.43419 -0.7306,-9.62074 C 146.63783,118.05176 152.7411,110.28917 164,96.592727 175.73326,82.319226 177.30129,80.049676 175.80789,79.502118 175.08855,79.238371 168.425,78.904998 161,78.761289 L 147.5,78.5 147.20226,71.659988 c -0.18204,-4.181873 0.15701,-7.387955 0.87244,-8.25 C 149.02311,62.267232 153.86511,62 173.62244,62 c 23.04423,0 24.48695,0.10939 26.37756,2 1.51107,1.511066 2,3.333333 2,7.454044 0,5.439792 -0.0243,5.482256 -9.29421,16.25 C 187.59398,93.64182 180.914,101.65 177.86139,105.5 c -3.0526,3.85 -6.2952,7.6176 -7.20579,8.37244 -0.91058,0.75485 -1.6556,1.98147 -1.6556,2.72583 0,1.07305 3.46936,1.41016 16.75,1.62755 L 202.5,118.5 v 6.5 6.5 l -27.23396,0.26604 c -26.16001,0.25555 -27.31346,0.18654 -29.25,-1.75 z M 218.57143,88.428571 C 217.47591,87.33305 217,84.951894 217,80.566076 217,73.039972 215.58249,75.170308 238.33647,48.5 253.24473,31.025789 255.41102,28.09146 253.83351,27.508701 253.10008,27.237761 244.625,26.899964 235,26.758042 L 217.5,26.5 V 18 9.5 h 33.5 33.5 l 0.30612,5.958332 c 0.16837,3.277083 0.045,6.998796 -0.27419,8.270474 C 284.02296,25.756702 272.56485,39.946381 265.74054,47 c -1.3303,1.375 -2.90702,3.419177 -3.50383,4.542617 -0.96902,1.824106 -3.77838,4.96925 -13.36048,14.957383 -1.58293,1.65 -2.87764,3.3375 -2.87714,3.75 5e-4,0.4125 8.23591,0.75 18.30091,0.75 12.9,0 18.6541,0.354098 19.5,1.2 0.71309,0.713094 1.2,4.147737 1.2,8.464816 0,6.159055 -0.29441,7.422379 -1.93426,8.3 C 281.85371,89.613477 269.74533,90 250.63717,90 224.2484,90 219.93129,89.788434 218.57143,88.428571 Z"
       id="path1" />
  </g>
</svg>
